<?xml version="1.0" encoding="utf-8"?>
<!-- Generator: Adobe Illustrator 24.0.3, SVG Export Plug-In . SVG Version: 6.00 Build 0)  -->
<svg version="1.1" id="Layer_1" xmlns="http://www.w3.org/2000/svg" xmlns:xlink="http://www.w3.org/1999/xlink" x="0px" y="0px"
	 viewBox="0 0 500 500" style="enable-background:new 0 0 500 500;" xml:space="preserve">
<style type="text/css">
	.st0{fill-rule:evenodd;clip-rule:evenodd;fill:#8CC747;}
	.st1{fill-rule:evenodd;clip-rule:evenodd;fill:#F58220;}
</style>
<path class="st0" d="M410.2,119.8c-15.1-10.9-59,21.5-109,77.5c-1.7,1.9-4.7,1.8-6.2-0.1c-0.7-0.9-1.5-1.8-2.2-2.7
	C208.2,91.9,119,25.1,94.2,45.6c-24.8,20.5,23.7,120.8,108.2,223.2c6.8,8.2,13.6,16.2,20.4,23.9c1.2,1.4,1.3,3.4,0.3,5
	c-56.6,83.7-86.9,157-68.6,170.4c17.4,12.7,72.9-32.3,132-104.2c1.5-1.8,4.2-2,5.9-0.5c50.4,44.8,92.5,67.4,108.4,54.2
	c18-14.9-2.6-71.7-47.4-140.8c-0.9-1.3-0.9-3.1,0-4.4C402.3,196.3,427.2,132.2,410.2,119.8"/>
<path class="st1" d="M297.5,25.5c-34.3-1.8-63,24.3-63.8,58.2c-0.9,33.8,26.4,62.9,60.7,64.7c34.3,1.7,63-24.4,63.8-58.2
	C359.1,56.3,331.8,27.2,297.5,25.5"/>
</svg>
